<?xml version="1.0" standalone="no"?><!DOCTYPE svg PUBLIC "-//W3C//DTD SVG 1.1//EN" "http://www.w3.org/Graphics/SVG/1.1/DTD/svg11.dtd"><svg t="1580994017725" class="icon" viewBox="0 0 1024 1024" version="1.1" xmlns="http://www.w3.org/2000/svg" p-id="2141" xmlns:xlink="http://www.w3.org/1999/xlink" width="32" height="32"><defs><style type="text/css"></style></defs><path d="M796.992 498.016L464 831.008 192 560 524.992 225.984q6.016 0 23.488-0.992T600.992 224q66.016 0 127.008 2.016t67.008 3.008q3.008 87.008 4 164.512t-2.016 104.512z m62.016-270.016q-0.992-27.008-18.496-44.992t-44.512-19.008l-66.016-2.016q-62.016-2.016-128.992-2.016-68.992 0-89.504 3.488t-25.504 11.488L146.976 513.952q-19.008 20-19.008 45.504t19.008 45.504l271.008 271.008q19.008 19.008 45.504 19.008t45.504-18.016L848 536.96q8.992 0 14.016-51.008t-3.008-258.016z m-250.016 212q-20 0-33.504-13.504t-13.504-34.016 13.504-34.016 34.016-13.504 34.016 13.504 13.504 34.016-13.504 34.016-34.496 13.504z m0-160q-47.008 0.992-78.496 32.992t-33.504 79.008q2.016 48 33.504 79.488t78.496 32.512q48-0.992 79.488-32.512t32.512-79.488q-0.992-47.008-32.512-79.008T608.992 280z" p-id="2142"></path></svg>